{"title":"Amazing Medical Stories - The Woman With No Face","uid":16006711,"size":372606433,"categoryP":"video","categoryS":"tv_shows","magnet":"?xt=urn:btih:b8020588c48b8ae63897e9b323770c96f6a06848&amp;dn=Amazing+Medical+Stories+-+The+Woman+With+No+Face&amp;tr=udp%3A%2F%2Ftracker.leechers-paradise.org%3A6969&amp;tr=udp%3A%2F%2Fzer0day.ch%3A1337&amp;tr=udp%3A%2F%2Fopen.demonii.com%3A1337&amp;tr=udp%3A%2F%2Ftracker.coppersurfer.tk%3A6969&amp;tr=udp%3A%2F%2Fexodus.desync.com%3A6969","seeders":5,"leechers":3,"uploader":"Bullrout","files":1,"time":1476189687,"description":"Amazing Medical Stories - The Woman With No Face\r\n\r\nTambu Mackenzi has an aggressive cancer that is slowly killing her. She has had chemotherapy and radiotherapy, but the tumour continues to grow and is eating away at her skull, robbing her of sight and smell.\r\n\r\nComplete name : Amazing Medical Stories - The Woman With No Face.mp4\r\nFormat : MPEG-4\r\nFormat profile : Base Media / Version 2\r\nCodec ID : mp42 (mp42/isom/avc1)\r\nFile size : 355 MiB\r\nDuration : 45 min 6 s\r\nOverall bit rate mode : Variable\r\nOverall bit rate : 1 101 kb/s\r\n\r\nVideo\r\nID : 2\r\nFormat : AVC\r\nFormat/Info : Advanced Video Codec\r\nFormat profile :   \r\nFormat settings, CABAC : Yes\r\nFormat settings, ReFrames : 3 frames\r\nCodec ID : avc1\r\nCodec ID/Info : Advanced Video Coding\r\nDuration : 45 min 6 s\r\nBit rate mode : Variable\r\nBit rate : 970 kb/s\r\nMaximum bit rate : 1 000 kb/s\r\nWidth : 720 pixels\r\nHeight : 404 pixels\r\nDisplay aspect ratio : 16:9\r\nOriginal display aspect ratio : 16:9\r\nFrame rate mode : Constant\r\nFrame rate : 25.000 FPS\r\nStandard : PAL\r\nColor space : YUV\r\nChroma subsampling : 4:2:0\r\nBit depth : 8 bits\r\nScan type : Progressive\r\nBits/(Pixel*Frame) : 0.133\r\nStream size : 313 MiB (88%)\r\nWriting library : x264 core 112\r\nColor range : Limited\r\nColor primaries : BT.601 PAL\r\nTransfer characteristics : BT.470 System B, BT.470 System G\r\nMatrix coefficients : BT.601\r\n\r\nAudio\r\nID : 1\r\nFormat : AAC\r\nFormat/Info : Advanced Audio Codec\r\nFormat profile : LC\r\nCodec ID : 40\r\nDuration : 45 min 6 s\r\nBit rate mode : Variable\r\nBit rate : 128 kb/s\r\nMaximum bit rate : 576 kb/s\r\nChannel(s) : 2 channels\r\nChannel positions : Front: L R\r\nSampling rate : 48.0 kHz\r\nFrame rate : 46.875 FPS (1024 spf)\r\nCompression mode : Lossy\r\nStream size : 41.3 MiB (12%)","torrent":{"xt":"urn:btih:b8020588c48b8ae63897e9b323770c96f6a06848","amp;dn":"Amazing+Medical+Stories+-+The+Woman+With+No+Face","amp;tr":["udp%3A%2F%2Ftracker.leechers-paradise.org%3A6969","udp%3A%2F%2Fzer0day.ch%3A1337","udp%3A%2F%2Fopen.demonii.com%3A1337","udp%3A%2F%2Ftracker.coppersurfer.tk%3A6969","udp%3A%2F%2Fexodus.desync.com%3A6969"],"infoHash":"b8020588c48b8ae63897e9b323770c96f6a06848","infoHashBuffer":{"type":"Buffer","data":[184,2,5,136,196,139,138,230,56,151,233,179,35,119,12,150,246,160,104,72]},"announce":[],"urlList":[]}}